<?xml version="1.0"?>
<svg xmlns="http://www.w3.org/2000/svg" version="1.1" width="665.357116699219pt" height="879.642883300781pt" viewBox="-12.2785794394357 -369.921427999224 665.357142857143 879.642857142857" preserveAspectRatio="none" xmlns:xlink="http://www.w3.org/1999/xlink">
  <defs>
  </defs>
  <path d="M178.799987792969,38.6999969482422 L188.099990844727,38.6999969482422 " stroke="#6E6E6E" fill="none" stroke-width="1" stroke-opacity="1" />
  <path d="M193.799987792969,38.6999969482422 L188.099975585938,40.9199981689453 L188.099975585938,36.4799995422363 L193.799987792969,38.6999969482422 " stroke="none" fill="#6E6E6E" fill-rule="evenodd" stroke-width="0" fill-opacity="1" />
  <path d="M193.799987792969,38.6999969482422 L188.099975585938,40.9199981689453 L188.099975585938,36.4799995422363 L193.799987792969,38.6999969482422 " stroke="#6E6E6E" fill="none" stroke-width="1" stroke-opacity="1" />
  <path d="M89.3999938964844,38.6999969482422 L98.8106918334961,36.8178634643555 " stroke="#6E6E6E" fill="none" stroke-width="1" stroke-opacity="1" />
  <path d="M104.399993896484,35.7000007629395 L99.2460556030273,38.9947509765625 L98.3753051757813,34.6409721374512 L104.399993896484,35.7000007629395 " stroke="none" fill="#6E6E6E" fill-rule="evenodd" stroke-width="0" fill-opacity="1" />
  <path d="M104.399993896484,35.7000007629395 L99.2460556030273,38.9947509765625 L98.3753051757813,34.6409721374512 L104.399993896484,35.7000007629395 " stroke="#6E6E6E" fill="none" stroke-width="1" stroke-opacity="1" />
  <path d="M89.3999938964844,98.0999984741211 L102.934967041016,47.2085075378418 " stroke="#6E6E6E" fill="none" stroke-width="1" stroke-opacity="1" />
  <path d="M104.399993896484,41.6999969482422 L105.080383300781,47.7790985107422 L100.789543151855,46.6379203796387 L104.399993896484,41.6999969482422 " stroke="none" fill="#6E6E6E" fill-rule="evenodd" stroke-width="0" fill-opacity="1" />
  <path d="M104.399993896484,41.6999969482422 L105.080383300781,47.7790985107422 L100.789543151855,46.6379203796387 L104.399993896484,41.6999969482422 " stroke="#6E6E6E" fill="none" stroke-width="1" stroke-opacity="1" />
  <path d="M357.599975585938,38.6999969482422 L366.899963378906,38.6999969482422 " stroke="#6E6E6E" fill="none" stroke-width="1" stroke-opacity="1" />
  <path d="M372.599975585938,38.6999969482422 L366.899963378906,40.9199981689453 L366.899963378906,36.4799995422363 L372.599975585938,38.6999969482422 " stroke="none" fill="#6E6E6E" fill-rule="evenodd" stroke-width="0" fill-opacity="1" />
  <path d="M372.599975585938,38.6999969482422 L366.899963378906,40.9199981689453 L366.899963378906,36.4799995422363 L372.599975585938,38.6999969482422 " stroke="#6E6E6E" fill="none" stroke-width="1" stroke-opacity="1" />
  <path d="M268.199981689453,38.6999969482422 L277.5,38.6999969482422 " stroke="#6E6E6E" fill="none" stroke-width="1" stroke-opacity="1" />
  <path d="M283.199981689453,38.6999969482422 L277.499969482422,40.9199981689453 L277.499969482422,36.4799995422363 L283.199981689453,38.6999969482422 " stroke="none" fill="#6E6E6E" fill-rule="evenodd" stroke-width="0" fill-opacity="1" />
  <path d="M283.199981689453,38.6999969482422 L277.499969482422,40.9199981689453 L277.499969482422,36.4799995422363 L283.199981689453,38.6999969482422 " stroke="#6E6E6E" fill="none" stroke-width="1" stroke-opacity="1" />
  <path d="M536.399963378906,69.8999938964844 L545.699951171875,69.8999938964844 " stroke="#6E6E6E" fill="none" stroke-width="1" stroke-opacity="1" />
  <path d="M551.399963378906,69.8999938964844 L545.699951171875,72.1199951171875 L545.699951171875,67.6800003051758 L551.399963378906,69.8999938964844 " stroke="none" fill="#6E6E6E" fill-rule="evenodd" stroke-width="0" fill-opacity="1" />
  <path d="M551.399963378906,69.8999938964844 L545.699951171875,72.1199951171875 L545.699951171875,67.6800003051758 L551.399963378906,69.8999938964844 " stroke="#6E6E6E" fill="none" stroke-width="1" stroke-opacity="1" />
  <path d="M442.425140380859,50.0859642028809 L457.676086425781,63.1859550476074 " stroke="#6E6E6E" fill="none" stroke-width="1" stroke-opacity="1" />
  <path d="M461.999969482422,66.8999938964844 L456.229583740234,64.869987487793 L459.122619628906,61.5019187927246 L461.999969482422,66.8999938964844 " stroke="none" fill="#6E6E6E" fill-rule="evenodd" stroke-width="0" fill-opacity="1" />
  <path d="M461.999969482422,66.8999938964844 L456.229583740234,64.869987487793 L459.122619628906,61.5019187927246 L461.999969482422,66.8999938964844 " stroke="#6E6E6E" fill="none" stroke-width="1" stroke-opacity="1" />
  <path d="M89.3999938964844,104.099998474121 L141.599990844727,101.099998474121 " stroke="#6E6E6E" fill="none" stroke-width="1" stroke-opacity="1" />
  <path d="M141.599990844727,101.099998474121 L231,101.099998474121 " stroke="#6E6E6E" fill="none" stroke-width="1" stroke-opacity="1" />
  <path d="M231,101.099998474121 L320.399963378906,101.099998474121 " stroke="#6E6E6E" fill="none" stroke-width="1" stroke-opacity="1" />
  <path d="M320.399963378906,101.099998474121 L409.799957275391,101.099998474121 " stroke="#6E6E6E" fill="none" stroke-width="1" stroke-opacity="1" />
  <path d="M409.799957275391,101.099998474121 L456.985015869141,75.6092376708984 " stroke="#6E6E6E" fill="none" stroke-width="1" stroke-opacity="1" />
  <path d="M461.999969482422,72.8999938964844 L458.040161132813,77.5624389648438 L455.929809570313,73.6560363769531 L461.999969482422,72.8999938964844 " stroke="none" fill="#6E6E6E" fill-rule="evenodd" stroke-width="0" fill-opacity="1" />
  <path d="M461.999969482422,72.8999938964844 L458.040161132813,77.5624389648438 L455.929809570313,73.6560363769531 L461.999969482422,72.8999938964844 " stroke="#6E6E6E" fill="none" stroke-width="1" stroke-opacity="1" />
  <path d="M112.903930664063,15 L170.296051025391,15 L170.296035766602,15 C174.992614746094,14.9999923706055 178.79997253418,18.8073272705078 178.79997253418,23.5039329528809 C178.79997253418,23.5039348602295 178.79997253418,23.5039367675781 178.79997253418,23.5039386749268 L178.799987792969,23.5039367675781 L178.799987792969,53.8960647583008 L178.79997253418,53.8960571289063 C178.79997253418,58.5926513671875 174.992645263672,62.3999938964844 170.296051025391,62.3999977111816 L170.296051025391,62.3999977111816 L112.903930664063,62.3999977111816 L112.903930664063,62.3999977111816 C108.207336425781,62.3999977111816 104.399993896484,58.592658996582 104.399993896484,53.8960647583008 L104.399993896484,23.5039367675781 L104.39998626709,23.5039405822754 C104.39998626709,18.8073463439941 108.207321166992,15.0000028610229 112.903915405273,14.9999990463257 " stroke="none" fill="#F2E279" fill-rule="evenodd" stroke-width="0" fill-opacity="1" />
  <text x="35.6395225524902" y="36.8967208862305" dx="0" dy="0" font-family="Arial" font-size="5.14285731802182pt" fill="#000000" style="text-anchor:start" transform="matrix(0.750000 0.000000 0.000000 0.750000 104.399993896484 15)">Clip</text>
  <path d="M112.903930664063,15 L170.296051025391,15 L170.296035766602,15 C174.992614746094,14.9999923706055 178.79997253418,18.8073272705078 178.79997253418,23.5039329528809 C178.79997253418,23.5039348602295 178.79997253418,23.5039367675781 178.79997253418,23.5039386749268 L178.799987792969,23.5039367675781 L178.799987792969,53.8960647583008 L178.79997253418,53.8960571289063 C178.79997253418,58.5926513671875 174.992645263672,62.3999938964844 170.296051025391,62.3999977111816 L170.296051025391,62.3999977111816 L112.903930664063,62.3999977111816 L112.903930664063,62.3999977111816 C108.207336425781,62.3999977111816 104.399993896484,58.592658996582 104.399993896484,53.8960647583008 L104.399993896484,23.5039367675781 L104.39998626709,23.5039405822754 C104.39998626709,18.8073463439941 108.207321166992,15.0000028610229 112.903915405273,14.9999990463257 " stroke="none" fill="none" stroke-width="0.4285714" stroke-opacity="0" />
  <path d="M268.199951171875,38.6999931335449 C268.199951171875,51.7891387939453 251.544967651367,62.3999938964844 231,62.3999977111816 C210.455001831055,62.4000015258789 193.799987792969,51.7891578674316 193.79997253418,38.7000122070313 L193.79997253418,38.7000160217285 C193.799957275391,25.6108684539795 210.454956054688,15.0000085830688 230.999938964844,15 C251.544937133789,14.9999895095825 268.199951171875,25.6108322143555 268.199951171875,38.6999969482422 C268.199951171875,38.6999969482422 268.199951171875,38.6999969482422 268.199951171875,38.6999969482422 " stroke="none" fill="#83CC7C" fill-rule="evenodd" stroke-width="0" fill-opacity="1" />
  <text x="4.28818893432617" y="36.8967208862305" dx="0" dy="0" font-family="Arial" font-size="5.14285731802182pt" fill="#000000" style="text-anchor:start" transform="matrix(0.750000 0.000000 0.000000 0.750000 193.799987792969 15)">soils__Basin_</text>
  <text x="75.3315277099609" y="36.8967208862305" dx="0" dy="0" font-family="Arial" font-size="5.14285731802182pt" fill="#000000" style="text-anchor:start" transform="matrix(0.750000 0.000000 0.000000 0.750000 193.799987792969 15)"> ...</text>
  <path d="M268.199951171875,38.6999931335449 C268.199951171875,51.7891387939453 251.544967651367,62.3999938964844 231,62.3999977111816 C210.455001831055,62.4000015258789 193.799987792969,51.7891578674316 193.79997253418,38.7000122070313 L193.79997253418,38.7000160217285 C193.799957275391,25.6108684539795 210.454956054688,15.0000085830688 230.999938964844,15 C251.544937133789,14.9999895095825 268.199951171875,25.6108322143555 268.199951171875,38.6999969482422 C268.199951171875,38.6999969482422 268.199951171875,38.6999969482422 268.199951171875,38.6999969482422 " stroke="none" fill="none" stroke-width="0.4285714" stroke-opacity="0" />
  <path d="M89.3999862670898,101.099990844727 C89.3999862670898,114.189140319824 72.7449798583984,124.799995422363 52.2000122070313,124.799995422363 C31.6550273895264,124.800003051758 15.0000143051147,114.189155578613 14.9999971389771,101.10001373291 L14.9999942779541,101.10001373291 C14.9999771118164,88.0108642578125 31.6549739837646,77.4000091552734 52.1999626159668,77.4000015258789 C72.7449493408203,77.3999862670898 89.3999633789063,88.0108337402344 89.3999862670898,101.099998474121 C89.3999862670898,101.099998474121 89.3999862670898,101.099998474121 89.3999862670898,101.099998474121 " stroke="none" fill="#70AECC" fill-rule="evenodd" stroke-width="0" fill-opacity="1" />
  <text x="32.6288566589355" y="36.8967208862305" dx="0" dy="0" font-family="Arial" font-size="5.14285731802182pt" fill="#000000" style="text-anchor:start" transform="matrix(0.750000 0.000000 0.000000 0.750000 15 77.4000015258789)">basin</text>
  <path d="M89.3999862670898,101.099990844727 C89.3999862670898,114.189140319824 72.7449798583984,124.799995422363 52.2000122070313,124.799995422363 C31.6550273895264,124.800003051758 15.0000143051147,114.189155578613 14.9999971389771,101.10001373291 L14.9999942779541,101.10001373291 C14.9999771118164,88.0108642578125 31.6549739837646,77.4000091552734 52.1999626159668,77.4000015258789 C72.7449493408203,77.3999862670898 89.3999633789063,88.0108337402344 89.3999862670898,101.099998474121 C89.3999862670898,101.099998474121 89.3999862670898,101.099998474121 89.3999862670898,101.099998474121 " stroke="none" fill="none" stroke-width="0.4285714" stroke-opacity="0" />
  <path d="M89.3999862670898,38.6999931335449 C89.3999862670898,51.7891387939453 72.7449798583984,62.3999938964844 52.2000122070313,62.3999977111816 C31.6550273895264,62.4000015258789 15.0000143051147,51.7891578674316 14.9999971389771,38.7000122070313 L14.9999942779541,38.7000160217285 C14.9999771118164,25.6108684539795 31.6549739837646,15.0000085830688 52.1999626159668,15 C72.7449493408203,14.9999895095825 89.3999633789063,25.6108322143555 89.3999862670898,38.6999969482422 C89.3999862670898,38.6999969482422 89.3999862670898,38.6999969482422 89.3999862670898,38.6999969482422 " stroke="none" fill="#70AECC" fill-rule="evenodd" stroke-width="0" fill-opacity="1" />
  <text x="35.3048553466797" y="36.8967208862305" dx="0" dy="0" font-family="Arial" font-size="5.14285731802182pt" fill="#000000" style="text-anchor:start" transform="matrix(0.750000 0.000000 0.000000 0.750000 15 15)">soils</text>
  <path d="M89.3999862670898,38.6999931335449 C89.3999862670898,51.7891387939453 72.7449798583984,62.3999938964844 52.2000122070313,62.3999977111816 C31.6550273895264,62.4000015258789 15.0000143051147,51.7891578674316 14.9999971389771,38.7000122070313 L14.9999942779541,38.7000160217285 C14.9999771118164,25.6108684539795 31.6549739837646,15.0000085830688 52.1999626159668,15 C72.7449493408203,14.9999895095825 89.3999633789063,25.6108322143555 89.3999862670898,38.6999969482422 C89.3999862670898,38.6999969482422 89.3999862670898,38.6999969482422 89.3999862670898,38.6999969482422 " stroke="none" fill="none" stroke-width="0.4285714" stroke-opacity="0" />
  <path d="M291.703918457031,15 L349.096038818359,15 L349.096008300781,15 C353.792602539063,14.9999923706055 357.599945068359,18.8073272705078 357.599945068359,23.5039329528809 C357.599945068359,23.5039348602295 357.599945068359,23.5039367675781 357.599945068359,23.5039386749268 L357.599975585938,23.5039367675781 L357.599975585938,53.8960647583008 L357.599945068359,53.8960571289063 C357.599945068359,58.5926513671875 353.792633056641,62.3999938964844 349.096038818359,62.3999977111816 L349.096038818359,62.3999977111816 L291.703918457031,62.3999977111816 L291.703918457031,62.3999977111816 C287.00732421875,62.3999977111816 283.199981689453,58.592658996582 283.199981689453,53.8960647583008 L283.199981689453,23.5039367675781 L283.199951171875,23.5039405822754 C283.199951171875,18.8073463439941 287.007293701172,15.0000028610229 291.703887939453,14.9999990463257 " stroke="none" fill="#F2E279" fill-rule="evenodd" stroke-width="0" fill-opacity="1" />
  <text x="29.6328563690186" y="36.8967208862305" dx="0" dy="0" font-family="Arial" font-size="5.14285731802182pt" fill="#000000" style="text-anchor:start" transform="matrix(0.750000 0.000000 0.000000 0.750000 283.199981689453 15)">Select</text>
  <path d="M291.703918457031,15 L349.096038818359,15 L349.096008300781,15 C353.792602539063,14.9999923706055 357.599945068359,18.8073272705078 357.599945068359,23.5039329528809 C357.599945068359,23.5039348602295 357.599945068359,23.5039367675781 357.599945068359,23.5039386749268 L357.599975585938,23.5039367675781 L357.599975585938,53.8960647583008 L357.599945068359,53.8960571289063 C357.599945068359,58.5926513671875 353.792633056641,62.3999938964844 349.096038818359,62.3999977111816 L349.096038818359,62.3999977111816 L291.703918457031,62.3999977111816 L291.703918457031,62.3999977111816 C287.00732421875,62.3999977111816 283.199981689453,58.592658996582 283.199981689453,53.8960647583008 L283.199981689453,23.5039367675781 L283.199951171875,23.5039405822754 C283.199951171875,18.8073463439941 287.007293701172,15.0000028610229 291.703887939453,14.9999990463257 " stroke="none" fill="none" stroke-width="0.4285714" stroke-opacity="0" />
  <path d="M446.999938964844,38.6999931335449 C446.999938964844,51.7891387939453 430.344940185547,62.3999938964844 409.799987792969,62.3999977111816 C389.254974365234,62.4000015258789 372.599975585938,51.7891578674316 372.599945068359,38.7000122070313 L372.599945068359,38.7000160217285 C372.599945068359,25.6108684539795 389.254943847656,15.0000085830688 409.799926757813,15 C430.344909667969,14.9999895095825 446.999938964844,25.6108322143555 446.999938964844,38.6999969482422 C446.999938964844,38.6999969482422 446.999938964844,38.6999969482422 446.999938964844,38.6999969482422 " stroke="none" fill="#83CC7C" fill-rule="evenodd" stroke-width="0" fill-opacity="1" />
  <text x="4.28818893432617" y="36.8967208862305" dx="0" dy="0" font-family="Arial" font-size="5.14285731802182pt" fill="#000000" style="text-anchor:start" transform="matrix(0.750000 0.000000 0.000000 0.750000 372.599975585938 15)">soils__Basin_</text>
  <text x="75.3315277099609" y="36.8967208862305" dx="0" dy="0" font-family="Arial" font-size="5.14285731802182pt" fill="#000000" style="text-anchor:start" transform="matrix(0.750000 0.000000 0.000000 0.750000 372.599975585938 15)"> ...</text>
  <path d="M446.999938964844,38.6999931335449 C446.999938964844,51.7891387939453 430.344940185547,62.3999938964844 409.799987792969,62.3999977111816 C389.254974365234,62.4000015258789 372.599975585938,51.7891578674316 372.599945068359,38.7000122070313 L372.599945068359,38.7000160217285 C372.599945068359,25.6108684539795 389.254943847656,15.0000085830688 409.799926757813,15 C430.344909667969,14.9999895095825 446.999938964844,25.6108322143555 446.999938964844,38.6999969482422 C446.999938964844,38.6999969482422 446.999938964844,38.6999969482422 446.999938964844,38.6999969482422 " stroke="none" fill="none" stroke-width="0.4285714" stroke-opacity="0" />
  <path d="M470.503936767578,46.2000007629395 L527.896057128906,46.2000007629395 L527.89599609375,46.2000007629395 C532.592590332031,46.1999931335449 536.399963378906,50.0073280334473 536.399963378906,54.7039337158203 C536.399963378906,54.7039337158203 536.399963378906,54.7039375305176 536.399963378906,54.7039375305176 L536.399963378906,54.7039375305176 L536.399963378906,85.096061706543 L536.399963378906,85.0960540771484 C536.399963378906,89.7926483154297 532.592651367188,93.5999908447266 527.896057128906,93.5999984741211 L527.896057128906,93.5999984741211 L470.503936767578,93.5999984741211 L470.503936767578,93.5999984741211 C465.807342529297,93.5999984741211 462,89.7926559448242 462,85.096061706543 L462,54.7039375305176 L461.999969482422,54.7039413452148 C461.999969482422,50.0073471069336 465.807312011719,46.2000007629395 470.50390625,46.1999969482422 " stroke="none" fill="#F2E279" fill-rule="evenodd" stroke-width="0" fill-opacity="1" />
  <text x="30.6328563690186" y="36.8967208862305" dx="0" dy="0" font-family="Arial" font-size="5.14285731802182pt" fill="#000000" style="text-anchor:start" transform="matrix(0.750000 0.000000 0.000000 0.750000 462 46.2000007629395)">Erase</text>
  <path d="M470.503936767578,46.2000007629395 L527.896057128906,46.2000007629395 L527.89599609375,46.2000007629395 C532.592590332031,46.1999931335449 536.399963378906,50.0073280334473 536.399963378906,54.7039337158203 C536.399963378906,54.7039337158203 536.399963378906,54.7039375305176 536.399963378906,54.7039375305176 L536.399963378906,54.7039375305176 L536.399963378906,85.096061706543 L536.399963378906,85.0960540771484 C536.399963378906,89.7926483154297 532.592651367188,93.5999908447266 527.896057128906,93.5999984741211 L527.896057128906,93.5999984741211 L470.503936767578,93.5999984741211 L470.503936767578,93.5999984741211 C465.807342529297,93.5999984741211 462,89.7926559448242 462,85.096061706543 L462,54.7039375305176 L461.999969482422,54.7039413452148 C461.999969482422,50.0073471069336 465.807312011719,46.2000007629395 470.50390625,46.1999969482422 " stroke="none" fill="none" stroke-width="0.4285714" stroke-opacity="0" />
  <path d="M625.799926757813,69.8999938964844 C625.799926757813,82.9891357421875 609.144897460938,93.5999908447266 588.599975585938,93.5999984741211 C568.054931640625,93.5999984741211 551.399963378906,82.9891586303711 551.39990234375,69.9000091552734 L551.39990234375,69.900016784668 C551.39990234375,56.8108673095703 568.054931640625,46.200008392334 588.599914550781,46.2000007629395 C609.144897460938,46.1999893188477 625.799926757813,56.8108329772949 625.799926757813,69.8999938964844 C625.799926757813,69.8999938964844 625.799926757813,69.8999938964844 625.799926757813,69.8999938964844 " stroke="none" fill="#83CC7C" fill-rule="evenodd" stroke-width="0" fill-opacity="1" />
  <text x="3.2855224609375" y="36.8967208862305" dx="0" dy="0" font-family="Arial" font-size="5.14285731802182pt" fill="#000000" style="text-anchor:start" transform="matrix(0.750000 0.000000 0.000000 0.750000 551.399963378906 46.2000007629395)">basin_EraseN</text>
  <text x="75.9948577880859" y="36.8967208862305" dx="0" dy="0" font-family="Arial" font-size="5.14285731802182pt" fill="#000000" style="text-anchor:start" transform="matrix(0.750000 0.000000 0.000000 0.750000 551.399963378906 46.2000007629395)"> ...</text>
  <path d="M625.799926757813,69.8999938964844 C625.799926757813,82.9891357421875 609.144897460938,93.5999908447266 588.599975585938,93.5999984741211 C568.054931640625,93.5999984741211 551.399963378906,82.9891586303711 551.39990234375,69.9000091552734 L551.39990234375,69.900016784668 C551.39990234375,56.8108673095703 568.054931640625,46.200008392334 588.599914550781,46.2000007629395 C609.144897460938,46.1999893188477 625.799926757813,56.8108329772949 625.799926757813,69.8999938964844 C625.799926757813,69.8999938964844 625.799926757813,69.8999938964844 625.799926757813,69.8999938964844 " stroke="none" fill="none" stroke-width="0.4285714" stroke-opacity="0" />
</svg>